<?xml version="1.0" standalone="no"?>
<!DOCTYPE svg PUBLIC "-//W3C//DTD SVG 20010904//EN"
 "http://www.w3.org/TR/2001/REC-SVG-20010904/DTD/svg10.dtd">
<svg version="1.0" xmlns="http://www.w3.org/2000/svg"
 width="72.000000pt" height="72.000000pt" viewBox="0 0 72.000000 72.000000"
 preserveAspectRatio="xMidYMid meet">
<metadata>
Created by potrace 1.14, written by Peter Selinger 2001-2017
</metadata>
<g transform="translate(0.000000,72.000000) scale(0.100000,-0.100000)"
fill="#000000" stroke="none">
<path d="M260 668 c-30 -12 -58 -26 -62 -32 -5 -6 -8 -7 -8 -1 0 6 -3 6 -8 0
-4 -6 -20 -20 -35 -32 -15 -12 -28 -24 -27 -28 0 -3 -8 -15 -19 -27 -24 -25
-52 -81 -54 -108 -1 -11 -4 -20 -7 -20 -4 0 -6 -29 -6 -65 0 -36 2 -65 6 -65
3 0 7 -12 8 -26 1 -14 5 -31 9 -37 4 -7 8 -19 10 -27 1 -8 10 -20 19 -27 10
-7 14 -13 8 -13 -5 0 18 -25 50 -54 32 -30 62 -54 65 -53 3 1 16 -4 27 -11 59
-32 189 -31 255 3 16 9 29 13 29 10 0 -3 11 6 25 21 14 15 25 23 25 19 0 -4
11 4 25 19 14 15 25 29 25 32 0 3 9 17 21 33 11 15 22 36 24 47 2 10 4 19 5
19 11 0 22 164 12 180 -4 5 -7 15 -8 20 -1 6 -7 24 -14 40 -6 17 -10 30 -9 30
5 0 -35 47 -67 79 -34 34 -139 90 -154 81 -5 -3 -11 -1 -14 3 -7 12 -74 13
-81 2 -3 -6 -12 -10 -18 -10 -7 0 -6 4 3 10 24 16 -1 11 -60 -12z"/>
</g>
</svg>
